<svg width="144" height="36" viewBox="0 0 144 36" fill="none" xmlns="http://www.w3.org/2000/svg">
<g clip-path="url(#clip0_36_7)">
<path d="M48.5436 8.57031H45.7666V27.4391H48.5436V8.57031Z" fill="white"/>
<path d="M61.4947 14.3805C60.5406 13.7751 59.4307 13.4612 58.3008 13.477C57.2766 13.477 56.4049 13.6881 55.686 14.1102C54.9767 14.524 54.3724 15.0961 53.9204 15.7818C53.8308 15.9241 53.7455 16.0592 53.6644 16.2014V8.57031H51.0225V27.4406H53.6644V25.0007C53.7412 25.1429 53.8223 25.2738 53.9076 25.4047C54.354 26.0951 54.9595 26.6684 55.6732 27.0763C56.3996 27.4984 57.2755 27.7094 58.3008 27.7094C59.1559 27.7188 60.0026 27.5396 60.7805 27.1844C61.5341 26.8343 62.2084 26.3342 62.7623 25.7149C63.3465 25.0565 63.7995 24.2926 64.0967 23.4642C64.4283 22.5438 64.5926 21.5715 64.5819 20.5933C64.5819 19.1914 64.3036 17.9584 63.7468 16.8943C63.234 15.8702 62.4564 15.0022 61.4947 14.3805ZM61.5758 22.575C61.3877 23.1254 61.0934 23.6334 60.7094 24.0702C60.3495 24.4783 59.9027 24.8006 59.402 25.0135C58.8728 25.2348 58.3039 25.3453 57.7303 25.3379C56.5267 25.3379 55.5385 24.9201 54.7655 24.0845C53.9925 23.2489 53.606 22.0852 53.606 20.5933C53.5944 19.9165 53.6993 19.2427 53.9162 18.6015C54.1053 18.0564 54.398 17.553 54.7783 17.1191C55.1368 16.7125 55.5842 16.3942 56.0857 16.1886C56.6084 15.9785 57.1671 15.8731 57.7303 15.8786C58.9528 15.8786 59.9488 16.2921 60.718 17.1191C61.4871 17.9462 61.8736 19.1051 61.8774 20.5961C61.8897 21.2681 61.7878 21.9372 61.5758 22.575Z" fill="white"/>
<path d="M75.5665 14.3535C74.5829 13.761 73.4524 13.4573 72.3043 13.4771C71.3952 13.4657 70.4928 13.6349 69.6496 13.975C68.8582 14.303 68.1462 14.7962 67.5611 15.4219C66.9564 16.0698 66.4928 16.8361 66.1997 17.6726C65.8737 18.6128 65.7139 19.6025 65.7273 20.5975C65.7273 22.0202 66.0147 23.2645 66.5895 24.3306C67.1351 25.3667 67.9557 26.2326 68.961 26.8331C70.0148 27.4486 71.218 27.7612 72.438 27.7365C73.2186 27.738 73.9953 27.6244 74.7428 27.3993C75.4931 27.1731 76.1899 26.7976 76.7914 26.2953C77.4457 25.741 77.99 25.0687 78.3962 24.3135L76.3475 23.0459C76.0926 23.5589 75.7454 24.0204 75.3232 24.4075C74.9413 24.7503 74.4907 25.0078 74.0016 25.1629C73.4947 25.3186 72.9669 25.3958 72.4366 25.3919C71.7086 25.404 70.991 25.2175 70.361 24.8527C69.7324 24.4719 69.2313 23.9128 68.9212 23.2466C68.6244 22.6071 68.4538 21.9163 68.419 21.2122H78.6124C78.6306 21.0873 78.6397 20.9613 78.6394 20.8351V20.4837C78.6394 19.0819 78.3653 17.8555 77.8171 16.8047C77.3074 15.7956 76.5285 14.9473 75.5665 14.3535ZM69.4334 16.9683C69.7554 16.5539 70.1781 16.2288 70.6611 16.0237C71.1734 15.8123 71.7232 15.7073 72.2773 15.7149C72.7808 15.7013 73.2811 15.8007 73.7412 16.0057C74.2014 16.2109 74.6097 16.5164 74.9362 16.9C75.4303 17.4691 75.7476 18.2511 75.888 19.246H68.4972C68.5378 18.9957 68.5938 18.7482 68.6651 18.5048C68.8226 17.949 69.0832 17.4278 69.4334 16.9683Z" fill="white"/>
<path d="M87.4816 13.4771H86.699C85.9307 13.4654 85.1758 13.6812 84.5296 14.0974C83.8913 14.5062 83.3744 15.1373 82.979 15.991V13.746H80.3428V27.4406H82.9832V20.1352C82.9832 18.9677 83.2801 18.033 83.8739 17.3311C84.1455 16.9952 84.4902 16.7256 84.8816 16.5427C85.2731 16.3598 85.701 16.2684 86.1333 16.2755H87.4816V13.4771Z" fill="white"/>
<path d="M98.3702 16.2014C98.2888 16.0592 98.2056 15.917 98.114 15.7818C97.6623 15.0961 97.0583 14.524 96.3486 14.1102C95.6304 13.6871 94.7683 13.4761 93.7612 13.477C92.9029 13.4686 92.0538 13.6433 91.2684 13.9893C90.5063 14.3302 89.8274 14.8315 89.2767 15.4588C88.6969 16.1182 88.2481 16.8821 87.9554 17.7095C87.63 18.6357 87.4711 19.6118 87.4841 20.5933C87.4841 21.995 87.7581 23.2304 88.3051 24.2993C88.8138 25.3225 89.5909 26.188 90.554 26.8032C91.5133 27.4068 92.627 27.72 93.7612 27.7052C94.7683 27.7052 95.6351 27.4941 96.3626 27.072C97.0742 26.6642 97.6792 26.0926 98.1252 25.4047C98.2112 25.2738 98.2907 25.1387 98.3674 25.0007V27.4406H101.009V8.57031H98.3702V16.2014ZM97.2789 24.0702C96.9161 24.4805 96.4645 24.803 95.9586 25.0135C95.4331 25.2323 94.8693 25.3426 94.2998 25.3379C93.0777 25.3379 92.0819 24.9201 91.3123 24.0845C90.5437 23.2489 90.1566 22.0852 90.1528 20.5933C90.1416 19.9165 90.2463 19.2427 90.4633 18.6015C90.6531 18.0563 90.9458 17.553 91.3263 17.1191C91.6845 16.7119 92.1324 16.3934 92.6345 16.1886C93.1656 15.9768 93.7322 15.8715 94.3045 15.8786C95.5079 15.8786 96.4963 16.2921 97.2705 17.1191C98.0448 17.9462 98.431 19.1051 98.4291 20.5961C98.4366 21.2678 98.3337 21.9363 98.1252 22.575C97.9475 23.1257 97.6595 23.6344 97.2789 24.0702Z" fill="white"/>
<path d="M110.635 13.4771H109.854C109.086 13.4654 108.331 13.6812 107.684 14.0974C107.046 14.5062 106.529 15.1373 106.134 15.991V13.746H103.492V27.4406H106.134V20.1352C106.134 18.9677 106.43 18.033 107.023 17.3311C107.295 16.9944 107.641 16.7243 108.034 16.5413C108.426 16.3585 108.855 16.2675 109.288 16.2755H110.635V13.4771Z" fill="white"/>
<path d="M121.149 14.3663C120.052 13.7598 118.816 13.4531 117.563 13.4771C116.623 13.4683 115.688 13.6422 114.813 13.9894C113.984 14.321 113.231 14.8214 112.605 15.4589C111.969 16.1055 111.472 16.876 111.148 17.7224C110.798 18.6387 110.624 19.6127 110.635 20.5934C110.635 21.9951 110.936 23.2352 111.539 24.3136C112.115 25.3669 112.974 26.2392 114.018 26.8331C115.108 27.4457 116.341 27.7575 117.59 27.7365C118.533 27.7455 119.468 27.567 120.34 27.2116C121.167 26.8722 121.918 26.3727 122.55 25.7419C123.187 25.1013 123.682 24.3347 124.006 23.4913C124.356 22.5661 124.53 21.5829 124.517 20.5934C124.517 19.1707 124.217 17.9263 123.616 16.8603C123.039 15.8174 122.185 14.9544 121.149 14.3663ZM121.499 22.5879C121.305 23.1424 121 23.6517 120.604 24.0845C120.227 24.4883 119.768 24.8053 119.257 25.0136C118.717 25.2331 118.14 25.3433 117.558 25.3379C116.805 25.3472 116.064 25.1505 115.415 24.7689C114.771 24.3803 114.251 23.8156 113.917 23.1413C113.547 22.4319 113.363 21.5826 113.364 20.5934C113.353 19.9166 113.457 19.2428 113.674 18.6016C113.865 18.0541 114.162 17.5502 114.55 17.1192C114.922 16.7093 115.383 16.3908 115.898 16.1887C116.43 15.98 116.997 15.8748 117.57 15.8787C118.339 15.8649 119.099 16.0617 119.766 16.4477C120.411 16.8336 120.935 17.3943 121.275 18.0652C121.644 18.7671 121.829 19.6117 121.829 20.5991C121.835 21.2761 121.724 21.9494 121.499 22.5879Z" fill="white"/>
<path d="M129.032 24.705C128.808 24.4262 128.696 24.0259 128.696 23.5043V8.56628H126.054V23.6735C126.037 24.3517 126.176 25.0246 126.459 25.6411C126.727 26.1977 127.16 26.6588 127.698 26.9627C128.326 27.3033 129.033 27.4707 129.747 27.4479H131.23V25.129H130.151C129.63 25.1219 129.258 24.9838 129.032 24.705Z" fill="white"/>
<path d="M143.472 16.4423C143.151 15.7856 142.686 15.2099 142.112 14.7579C141.534 14.3111 140.874 13.9816 140.17 13.7876C139.42 13.5779 138.644 13.4736 137.865 13.4775C136.699 13.4594 135.548 13.7427 134.523 14.2998C133.527 14.857 132.747 15.7355 132.313 16.7923L134.389 17.983C134.64 17.3396 135.088 16.7919 135.669 16.4181C136.252 16.0387 136.967 15.849 137.812 15.849C138.416 15.841 139.015 15.9511 139.577 16.1734C140.102 16.3839 140.549 16.751 140.857 17.2248C141.182 17.7103 141.344 18.3482 141.344 19.1383V20.6648C141.251 20.5666 141.152 20.4698 141.046 20.3802C140.202 19.6443 138.98 19.2762 137.381 19.2762C136.424 19.2638 135.474 19.4283 134.578 19.7614C133.791 20.0436 133.1 20.5433 132.586 21.2025C132.115 21.8755 131.86 22.6768 131.857 23.4986C131.855 24.3204 132.104 25.1233 132.572 25.7991C133.075 26.4482 133.746 26.9471 134.512 27.2417C135.384 27.5833 136.313 27.7524 137.248 27.7397C138.865 27.7397 140.114 27.358 140.996 26.5944C141.173 26.4397 141.336 26.2683 141.48 26.0823V27.4437H143.987V18.895C144.01 18.0485 143.833 17.2085 143.472 16.4423ZM140.453 25.1206C139.807 25.4999 139.001 25.6896 138.034 25.6896C137.046 25.6896 136.223 25.4999 135.568 25.1206C134.912 24.7412 134.585 24.193 134.585 23.476C134.571 23.1306 134.656 22.7885 134.83 22.4899C135.004 22.1915 135.26 21.9491 135.568 21.7915C136.223 21.4226 137.046 21.2385 138.034 21.2396C139.005 21.2396 139.811 21.4292 140.453 21.8086C140.756 21.9679 141.007 22.2089 141.178 22.5043C141.35 22.7997 141.435 23.1374 141.424 23.4788C141.424 24.1977 141.101 24.7454 140.453 25.122V25.1206Z" fill="white"/>
<path d="M20.8897 20.7343C20.8865 22.9057 21.7421 24.9902 23.2698 26.5331C26.2176 29.4809 30.2195 29.4752 32.7703 28.0895C35.8931 26.3951 42.9182 21.3134 35.6242 0.233765C35.6242 10.1839 20.8897 11.1954 20.8897 20.7343Z" fill="white"/>
<path d="M27.5989 8.94474C27.1152 6.337 26.3398 3.66665 25.1803 0.233765C25.1803 10.1839 10.4443 11.1954 10.4443 20.7343C10.441 22.9052 11.2954 24.9894 12.8217 26.5331C15.7694 29.4809 19.8027 29.4724 22.3222 28.0895C16.4636 21.8426 18.5265 14.6112 27.5989 8.94474Z" fill="white"/>
<path d="M17.1545 8.94474C16.6708 6.337 15.894 3.66665 14.736 0.233765C14.736 10.1839 0 11.1954 0 20.7343C0 25.6269 3.96355 27.7808 3.96355 27.7808C3.34763 30.3967 3.21887 33.1037 3.58373 35.7662L5.47443 35.4519C4.54965 32.2366 5.11733 28.7354 5.17568 28.3926C7.59422 29.3614 10.0881 29.074 11.8778 28.0923C6.01078 21.8426 8.08214 14.6126 17.1545 8.94474Z" fill="white"/>
</g>
<defs>
<clipPath id="clip0_36_7">
<rect width="144" height="35.5325" fill="white" transform="translate(0 0.233765)"/>
</clipPath>
</defs>
</svg>
