<svg width="145" height="32" viewBox="0 0 145 32" fill="none" xmlns="http://www.w3.org/2000/svg">
<g clip-path="url(#clip0_36_20)">
<path d="M92.5136 14.2425C92.4957 10.0104 92.5136 5.77829 92.5136 1.54617V1.20544H89.3574L89.3395 1.58203C89.3395 5.79622 89.3395 10.0283 89.3395 14.2425C89.3395 14.4039 89.3574 14.5833 89.3395 14.7626C89.2498 15.8744 88.7836 16.7531 87.7973 17.3449C87.1697 17.7215 86.4523 17.9546 85.735 18.0263C84.677 18.1519 83.619 17.9725 82.6685 17.5063C81.3953 16.8428 80.8394 15.7668 80.8394 14.3681C80.8394 10.118 80.8394 5.86795 80.8394 1.6179V1.20544H77.7012V3.82362C77.7191 7.3743 77.6832 10.9429 77.7191 14.4936C77.737 16.789 78.6695 18.6361 80.6242 19.8913C82.5251 21.1108 84.6232 21.3977 86.811 21.0032C90.0568 20.4114 92.5495 18.0084 92.5136 14.2425Z" fill="white"/>
<path d="M135.677 18.3312V12.1444H142.94V9.31104H135.677V3.98502H144.428V1.20544H132.539V21.1646H144.5V18.3312H135.677Z" fill="white"/>
<path d="M107.702 8.36071L120.237 22.0792C120.255 22.0254 120.255 21.9896 120.255 21.9358C120.255 20.4832 120.273 19.0307 120.255 17.5781C120.237 17.4526 120.183 17.3271 120.093 17.2374C115.001 11.6603 109.908 6.10119 104.815 0.524107C104.761 0.452376 104.707 0.380644 104.6 0.237183V21.1826H107.702V8.36071Z" fill="white"/>
<path d="M19.0245 10.5843L25.283 19.8734C25.8748 18.9768 26.4487 18.1161 27.0225 17.2911C27.148 17.1477 27.148 16.9146 27.0225 16.789C23.3822 11.3913 19.7418 5.99353 16.1016 0.595774C16.0478 0.524043 15.994 0.452312 15.9043 0.326782V21.1646H19.0245V10.5843Z" fill="white"/>
<path d="M65.5609 21.1646V0.308838L54.2812 17.058L56.1821 19.8914L62.3689 10.674L62.4406 10.7098V21.1646H65.5609Z" fill="white"/>
<path d="M55.1597 12.7542C52.434 8.6655 49.6903 4.59477 46.9465 0.50611C46.8928 0.452312 46.839 0.38058 46.7852 0.326782V21.1467H49.9234V10.6919L49.9772 10.674L53.4023 15.7489C54.03 14.8344 54.6038 13.9557 55.1777 13.077C55.2315 12.9694 55.2315 12.8618 55.1597 12.7542Z" fill="white"/>
<path d="M34.662 21.1646V0.344727C34.5903 0.434391 34.5724 0.470257 34.5365 0.506122C31.7928 4.59478 29.0491 8.68345 26.3054 12.7542C26.2157 12.8618 26.2157 13.0411 26.3233 13.1487C26.8075 13.866 27.2917 14.5833 27.7759 15.3006C27.8655 15.4441 27.9552 15.5696 28.0807 15.7489L31.488 10.674L31.5597 10.6919V21.1825H34.662V21.1646Z" fill="white"/>
<path d="M3.58443 1.20544H0.5V21.1646H3.58443V1.20544Z" fill="white"/>
<path d="M117.297 12.0368C118.211 13.041 119.144 14.0453 120.058 15.0495C120.094 15.1033 120.148 15.175 120.166 15.2468L120.238 15.175V1.20544H117.117C117.099 1.29511 117.099 1.4027 117.099 1.47444C117.081 4.84579 117.081 8.21714 117.099 11.5885C117.135 11.7678 117.207 11.9113 117.297 12.0368Z" fill="white"/>
<path d="M43.0189 26.1858C41.4767 26.1858 40.3469 27.3335 40.3469 28.9116C40.329 30.5434 41.4229 31.6732 42.983 31.6732C44.5432 31.6732 45.6729 30.5614 45.6729 28.9474C45.6729 27.3156 44.579 26.1858 43.0189 26.1858ZM42.194 30.7228C41.387 30.3283 40.9925 29.3061 41.2615 28.3019C41.4408 27.4411 42.2298 26.8493 43.0906 26.921C44.0769 26.9569 44.7763 27.7818 44.8121 28.8936C44.848 30.4179 43.5031 31.3684 42.194 30.7228Z" fill="white"/>
<path d="M58.423 26.1858C56.8628 26.1858 55.751 27.3156 55.751 28.9295C55.751 30.5434 56.8628 31.6732 58.423 31.6553C59.9831 31.6553 61.077 30.5076 61.077 28.8936C61.077 27.2797 59.9831 26.1858 58.423 26.1858ZM60.2162 28.8936C60.2521 30.4179 58.8892 31.3684 57.598 30.7228C56.7911 30.3283 56.3966 29.3061 56.6655 28.3019C56.8449 27.4411 57.6339 26.8493 58.5126 26.921C59.4989 26.9748 60.1983 27.7997 60.2162 28.8936Z" fill="white"/>
<path d="M69.4877 29.1447C69.4877 28.9474 69.3084 28.786 69.1111 28.804C68.5373 28.786 67.9634 28.786 67.3896 28.804C67.3358 28.804 67.282 28.804 67.2282 28.8398C67.0847 28.9116 67.0309 29.0909 67.1026 29.2344C67.1744 29.3599 67.3178 29.4496 67.4613 29.4496C67.8738 29.4854 68.3041 29.4675 68.6987 29.4675C68.8063 30.0234 68.5193 30.5793 67.9813 30.7945C67.8558 30.8662 67.7303 30.9021 67.6048 30.938C66.6723 31.189 65.7218 30.6331 65.4887 29.7006C65.399 29.3778 65.3632 29.0371 65.399 28.6964C65.4708 27.9253 65.8294 27.2976 66.6005 27.0286C67.3358 26.7596 68.1607 26.9928 68.6628 27.6025C68.8242 27.7997 68.9497 27.7101 69.0752 27.5846C69.0932 27.5846 69.0932 27.5666 69.0932 27.5666C69.2546 27.4052 69.2546 27.1721 69.0932 27.0107C68.878 26.7776 68.6269 26.5803 68.34 26.4369C66.5467 25.7016 64.3051 26.7238 64.5024 29.2702C64.5921 30.4897 65.2914 31.3504 66.3315 31.6015C67.2282 31.7987 68.0351 31.6732 68.6807 30.938C68.7345 31.1173 68.7166 31.3146 68.8242 31.4222C68.9676 31.5298 69.129 31.5836 69.3084 31.6015C69.3442 31.6015 69.4518 31.476 69.4518 31.4042C69.4518 30.6869 69.4518 29.9517 69.4518 29.2344C69.4877 29.1806 69.5056 29.1626 69.4877 29.1447Z" fill="white"/>
<path d="M36.33 26.2575C36.061 26.2575 35.9355 26.383 35.9355 26.652C35.9355 26.921 35.9355 27.1721 35.9355 27.4411V30.1489L35.8817 30.1668L35.6665 29.862C34.8775 28.7502 34.1064 27.6383 33.3173 26.5444C33.1559 26.2934 32.8332 26.1858 32.5462 26.2934C32.2772 26.401 32.2952 26.6341 32.2952 26.8672C32.2952 28.266 32.2952 29.6827 32.2952 31.0814C32.2952 31.1352 32.2952 31.2069 32.2952 31.2607C32.2952 31.5118 32.4566 31.6015 32.6718 31.6015C32.9587 31.6015 33.0663 31.4759 33.0663 31.1531C33.0663 30.0593 33.0663 28.9474 33.0663 27.8535C33.0663 27.7639 33.0842 27.6742 33.0842 27.5128C33.1918 27.6563 33.2456 27.728 33.3173 27.8177C34.1422 28.9833 34.9671 30.1489 35.7741 31.3145C35.9534 31.5656 36.1686 31.6732 36.4376 31.5835C36.7066 31.4939 36.7066 31.2607 36.7066 31.0276C36.7066 30.4179 36.7066 29.8261 36.7066 29.2164C36.7066 28.3736 36.7066 27.5128 36.7066 26.67C36.7246 26.383 36.599 26.2575 36.33 26.2575Z" fill="white"/>
<path d="M93.8758 26.8135C93.8758 26.7597 93.8758 26.688 93.8758 26.6342C93.8758 26.3831 93.7502 26.2576 93.4992 26.2576C93.2123 26.2576 93.1047 26.3652 93.1047 26.6521C93.1047 27.0466 93.1047 27.4591 93.1047 27.8536V30.1669L93.0688 30.1848C92.9971 30.1131 92.9433 30.0234 92.8895 29.9517C92.1004 28.8219 91.3114 27.7101 90.5044 26.5804C90.343 26.3114 90.0202 26.1858 89.7154 26.2934C89.4285 26.401 89.4643 26.6521 89.4643 26.8852C89.4643 28.0508 89.4643 29.1985 89.4643 30.3642C89.4643 30.6511 89.4643 30.9559 89.4643 31.2429C89.4643 31.2608 89.4643 31.2608 89.4643 31.2787C89.4643 31.4581 89.6078 31.6015 89.7871 31.6015C90.092 31.6374 90.2534 31.5119 90.2534 31.1891C90.2534 30.2207 90.2534 29.2523 90.2534 28.284V27.477C90.3789 27.6384 90.4327 27.7101 90.4865 27.7998L92.9253 31.2608C93.1405 31.5657 93.3378 31.6553 93.6068 31.5657C93.9116 31.4581 93.8758 31.1891 93.8758 30.9559C93.8758 29.5751 93.8758 28.1943 93.8758 26.8135Z" fill="white"/>
<path d="M27.9908 26.2576C27.7039 26.2576 27.5963 26.3472 27.5963 26.67C27.5963 26.9928 27.5963 27.3335 27.5963 27.6563V28.535H24.8347C24.8347 27.8894 24.8347 27.2797 24.8347 26.6521C24.8347 26.3472 24.6912 26.2396 24.4043 26.2396C24.1174 26.2396 24.0098 26.3293 24.0098 26.6521C24.0098 28.1584 24.0098 29.6468 24.0098 31.1532C24.0098 31.4939 24.1712 31.6015 24.4939 31.5656C24.7809 31.5298 24.8526 31.3684 24.8526 31.1173C24.8526 30.5076 24.8526 29.8979 24.8526 29.2703H27.5784V29.593C27.5784 30.0952 27.5784 30.6152 27.5784 31.1173C27.5784 31.476 27.7398 31.6015 28.0984 31.5477C28.4033 31.4939 28.4212 31.2787 28.4212 31.0456C28.4212 29.7365 28.4212 28.4095 28.4212 27.1004C28.4212 26.939 28.4212 26.7955 28.4212 26.6341C28.4212 26.3652 28.2778 26.2576 27.9908 26.2576Z" fill="white"/>
<path d="M11.9953 30.7946C11.2242 30.7946 10.4351 30.7946 9.6461 30.7946H9.32331V29.2165C9.39504 29.2165 9.44884 29.2165 9.50263 29.2165C10.1123 29.2165 10.74 29.2165 11.3497 29.2165C11.4932 29.1985 11.6187 29.1447 11.6904 29.0192C11.7442 28.8937 11.7263 28.7502 11.6546 28.6426C11.547 28.553 11.4035 28.4992 11.26 28.5171C10.5965 28.5171 9.95095 28.5171 9.28744 28.5171V27.0466C10.1661 27.0466 11.0269 27.0466 11.8877 27.0287C12.2105 27.0287 12.3181 26.9211 12.336 26.6521C12.3539 26.3831 12.2105 26.2755 11.8877 26.2755H9.00052C8.64186 26.2755 8.48047 26.419 8.48047 26.7597C8.48047 28.1943 8.48047 29.6289 8.48047 31.0636C8.48047 31.4043 8.64186 31.5477 8.98259 31.5477C9.98682 31.5477 10.9911 31.5477 11.9953 31.5477C12.2463 31.5477 12.4077 31.4222 12.4077 31.1711C12.4257 30.9201 12.3001 30.7946 11.9953 30.7946Z" fill="white"/>
<path d="M143.945 30.8125H141.327V29.2165H143.371C143.622 29.2165 143.765 29.091 143.765 28.8399C143.765 28.5888 143.604 28.4992 143.371 28.4992H141.327V27.0287H141.667C142.42 27.0287 143.174 27.0287 143.927 27.0287C144.25 27.0287 144.393 26.8494 144.357 26.5804C144.321 26.3114 144.142 26.2755 143.909 26.2755H141.093C140.573 26.2755 140.466 26.3831 140.466 26.9211C140.466 28.2481 140.466 29.5751 140.466 30.9022C140.466 30.9739 140.466 31.0635 140.466 31.1353C140.466 31.1532 140.466 31.1532 140.466 31.1711C140.484 31.3863 140.663 31.5477 140.878 31.5477C141.936 31.5477 142.994 31.5477 144.034 31.5477C144.07 31.5477 144.124 31.5477 144.16 31.5298C144.339 31.476 144.447 31.2967 144.393 31.1173C144.357 30.8484 144.16 30.8125 143.945 30.8125Z" fill="white"/>
<path d="M128.683 26.2755C128.361 26.2755 128.253 26.3652 128.253 26.7238C128.253 27.5667 128.253 28.3916 128.253 29.2344C128.253 29.4317 128.253 29.6289 128.217 29.8083C128.145 30.2566 127.966 30.6332 127.518 30.8125C126.549 31.207 125.689 30.669 125.635 29.6289C125.635 29.4675 125.635 29.3241 125.635 29.1627C125.635 28.3557 125.635 27.5487 125.635 26.7418C125.635 26.3831 125.545 26.2755 125.222 26.2755C124.9 26.2755 124.792 26.3831 124.792 26.7238C124.792 27.2259 124.792 27.7281 124.792 28.2481H124.81C124.81 28.804 124.774 29.3599 124.81 29.9159C124.882 30.8484 125.456 31.4939 126.334 31.6195C126.657 31.6733 126.998 31.6733 127.321 31.6374C128.307 31.5477 128.952 30.956 129.024 29.9876C129.114 28.9116 129.078 27.8177 129.078 26.7418C129.096 26.3831 129.006 26.2755 128.683 26.2755Z" fill="white"/>
<path d="M100.386 28.768C100.189 28.6963 99.9917 28.6246 99.7765 28.5708C99.4717 28.4811 99.1489 28.4273 98.844 28.3197C98.575 28.2659 98.3598 28.0149 98.3598 27.7279C98.324 27.4231 98.5033 27.1362 98.7902 27.0286C99.0951 26.9389 99.4179 26.8851 99.7227 26.903C100.207 26.921 100.566 27.2258 100.87 27.5666C101.355 27.2976 101.355 26.9389 100.924 26.5982C100.207 26.0243 98.844 26.0243 98.1088 26.5623C97.8936 26.7058 97.7322 26.903 97.6246 27.1541C97.3197 27.8535 97.6425 28.6784 98.3419 28.9832C98.6467 29.1088 98.9695 29.1984 99.2923 29.2881C99.5793 29.3598 99.8662 29.4495 100.153 29.575C100.279 29.6467 100.386 29.7364 100.458 29.8799C100.637 30.2206 100.494 30.6151 100.153 30.7944C99.9379 30.902 99.7227 30.9558 99.4896 30.9738C98.8081 31.0276 98.1626 30.7227 97.7681 30.1668C97.3377 30.3999 97.2659 30.7048 97.6067 31.0276C97.786 31.2069 97.9832 31.3324 98.1984 31.4221C98.8261 31.6911 99.5434 31.7269 100.207 31.5297C100.888 31.3504 101.319 30.8482 101.355 30.2027C101.408 29.5571 101.086 29.055 100.386 28.768Z" fill="white"/>
<path d="M19.9215 29.9876C19.6346 30.6152 19.0966 30.8842 18.4331 30.9021C17.2315 30.938 16.3887 29.8441 16.5859 28.5888C16.7115 27.8356 17.0701 27.2438 17.8412 27.0287C18.6124 26.8135 19.2938 27.0107 19.796 27.6563C19.8677 27.7101 19.9574 27.728 20.047 27.7101C20.0829 27.6922 20.1367 27.6742 20.1725 27.6563C20.3519 27.5308 20.4236 27.2797 20.2981 27.1004C20.1546 26.8673 19.9574 26.67 19.7242 26.5265C19.1145 26.1679 18.3792 26.0603 17.6978 26.2575C16.2631 26.5983 15.4562 27.9612 15.7431 29.5751C15.9941 30.9559 17.3032 31.8705 18.6841 31.6553C19.3297 31.5656 19.9215 31.3504 20.2981 30.7945C20.585 30.4 20.4236 30.0952 19.9215 29.9876Z" fill="white"/>
<path d="M4.58922 26.2933C4.10504 26.2933 3.63879 26.2933 3.15461 26.2933C2.41936 26.2933 1.66619 26.2933 0.930944 26.2933C0.608155 26.2933 0.500559 26.4189 0.518491 26.7237C0.536424 26.9748 0.697818 27.0465 0.913011 27.0465C1.37926 27.0465 1.84551 27.0465 2.34763 27.0465V27.3872C2.34763 28.6425 2.34763 29.8799 2.34763 31.1352C2.34763 31.5297 2.56283 31.6732 2.93941 31.5835C3.2084 31.5118 3.2084 31.2966 3.2084 31.0993C3.2084 30.0054 3.2084 28.9115 3.2084 27.8176V27.0644C3.71052 27.0644 4.14091 27.0644 4.58922 27.0644C4.89408 27.0644 5.03754 26.9389 5.01961 26.6699C5.00168 26.4009 4.84028 26.2933 4.58922 26.2933Z" fill="white"/>
<path d="M108.725 26.2934C107.451 26.2934 106.196 26.2934 104.923 26.2934H104.905C104.743 26.2755 104.582 26.4189 104.582 26.5803C104.546 26.8852 104.672 27.0466 104.995 27.0466C105.443 27.0466 105.909 27.0466 106.411 27.0466V27.4052C106.411 28.6605 106.411 29.8979 106.411 31.1532C106.411 31.5118 106.573 31.6373 106.931 31.6015C107.254 31.5656 107.272 31.3325 107.272 31.0814V27.0645C107.792 27.0645 108.258 27.0645 108.742 27.0645C108.76 27.0645 108.778 27.0645 108.814 27.0645C108.994 27.0466 109.137 26.8852 109.101 26.6879C109.101 26.67 109.101 26.6341 109.101 26.6162C109.065 26.4189 108.904 26.2755 108.725 26.2934Z" fill="white"/>
<path d="M120.99 26.2933C120.56 26.2933 120.112 26.2933 119.681 26.2933C118.91 26.2933 118.121 26.2933 117.35 26.2933C117.027 26.2933 116.92 26.4189 116.937 26.7058C116.955 26.9568 117.117 27.0286 117.332 27.0286C117.798 27.0286 118.264 27.0286 118.767 27.0286C118.767 28.4273 118.767 29.7723 118.767 31.0993C118.767 31.4938 118.946 31.6373 119.322 31.5476C119.609 31.4938 119.609 31.2786 119.609 31.0455C119.609 29.8261 119.609 28.5887 119.609 27.3693V27.0106C120.094 27.0106 120.542 27.0106 120.99 27.0106C121.295 27.0106 121.439 26.8851 121.421 26.6161C121.403 26.3471 121.259 26.2933 120.99 26.2933Z" fill="white"/>
<path d="M136.664 26.2933C135.391 26.2933 134.136 26.2933 132.863 26.2933C132.827 26.2933 132.791 26.2933 132.773 26.2933C132.594 26.3292 132.486 26.4906 132.504 26.6699C132.504 26.921 132.629 27.0465 132.916 27.0465C133.383 27.0465 133.849 27.0465 134.333 27.0465V27.4052C134.333 28.6605 134.333 29.8978 134.333 31.1531C134.333 31.5297 134.53 31.6732 134.907 31.6014C135.194 31.5297 135.194 31.3145 135.194 31.0993C135.194 29.8799 135.194 28.6605 135.194 27.441V27.0644L135.552 27.0465C135.929 27.0465 136.288 27.0465 136.664 27.0465C136.682 27.0465 136.7 27.0465 136.718 27.0465C136.897 27.0286 137.041 26.8672 137.023 26.6879C137.023 26.4547 136.915 26.2933 136.664 26.2933Z" fill="white"/>
<path d="M76.8403 26.2934C76.6251 26.2217 76.392 26.2934 76.2844 26.4907C76.1589 26.6879 76.0154 26.9031 75.8899 27.1004L74.8857 28.6964C74.4194 27.9612 74.007 27.2977 73.5945 26.6341C73.5407 26.5445 73.4869 26.4727 73.4152 26.401C73.2179 26.2396 72.931 26.2396 72.7337 26.401C72.5006 26.5803 72.662 26.7238 72.7696 26.8673C73.2896 27.6384 73.8097 28.4095 74.3297 29.1985C74.4194 29.342 74.4732 29.4854 74.4732 29.6468C74.4732 30.149 74.4732 30.6511 74.4732 31.1711C74.4732 31.4939 74.5987 31.6015 74.8857 31.6015C75.1726 31.6015 75.2981 31.476 75.2981 31.1711C75.2981 30.7049 75.316 30.2386 75.2981 29.7724C75.2802 29.5392 75.3519 29.3061 75.4954 29.1268C76.0154 28.3557 76.5175 27.5846 77.0376 26.8135C77.199 26.5445 77.1272 26.3831 76.8403 26.2934Z" fill="white"/>
<path d="M52.4161 30.7945C51.6809 30.7945 50.9636 30.7945 50.1745 30.7945V30.0054C50.1745 28.9115 50.1745 27.7997 50.1745 26.7058C50.1745 26.383 50.0669 26.2754 49.7979 26.2575C49.4572 26.2396 49.3496 26.3472 49.3496 26.7058C49.3496 27.6562 49.3496 28.6246 49.3496 29.575C49.3496 30.0772 49.3496 30.5793 49.3496 31.0993C49.3496 31.3683 49.4751 31.5656 49.7621 31.5656C50.6766 31.5656 51.5912 31.5656 52.5058 31.5656C52.7748 31.5656 52.8644 31.3863 52.8465 31.1531C52.8465 30.8662 52.6492 30.7945 52.4161 30.7945Z" fill="white"/>
<path d="M85.0896 26.2576C84.7668 26.2576 84.6592 26.3472 84.6592 26.7059C84.6592 28.1943 84.6592 29.6648 84.6592 31.1532C84.6592 31.476 84.7668 31.6015 85.0716 31.6015C85.3765 31.6015 85.502 31.4939 85.502 31.1532C85.502 30.418 85.502 29.6648 85.502 28.9295C85.502 28.1943 85.502 27.477 85.502 26.7418C85.502 26.3652 85.4124 26.2576 85.0896 26.2576Z" fill="white"/>
<path d="M112.992 26.2576C112.687 26.2576 112.598 26.3652 112.598 26.7238C112.598 27.4591 112.598 28.1943 112.598 28.9116C112.598 29.6469 112.598 30.3821 112.598 31.0994C112.598 31.4581 112.669 31.5657 112.992 31.5836C113.315 31.6015 113.423 31.4581 113.423 31.0994C113.423 29.6289 113.423 28.1764 113.423 26.7059C113.423 26.3652 113.315 26.2576 112.992 26.2576Z" fill="white"/>
</g>
<defs>
<clipPath id="clip0_36_20">
<rect width="144" height="31.5616" fill="white" transform="translate(0.5 0.219238)"/>
</clipPath>
</defs>
</svg>
