<svg width="512" height="512" viewBox="0 0 512 512" fill="none" xmlns="http://www.w3.org/2000/svg">
    <path d="M486.725 291.117C480.772 291.117 475.386 293.161 471.116 296.507L382.837 246.329C384.698 242.798 385.813 238.709 385.813 234.25C385.813 220.125 374.475 208.788 360.349 208.788C346.223 208.788 334.884 220.125 334.884 234.25C334.884 242.24 338.608 249.489 344.361 254.134L286.385 336.649C279.874 332.374 272.259 329.958 263.897 329.958H262.414L209.813 187.974C219.668 184.443 226.915 175.151 226.915 164.001C226.915 149.877 215.577 138.54 201.451 138.54C193.646 138.54 186.588 142.071 181.939 147.647L90.3155 127.575V126.46C90.3155 112.336 78.9874 101 64.8615 101C50.7345 101 39.398 112.336 39.398 126.46C39.398 140.584 50.7345 151.921 64.8615 151.921C76.7575 151.921 86.7919 143.558 89.5792 132.407L175.997 163.072V163.815C175.997 171.434 179.341 178.311 184.537 182.957L37.5394 291.303C34.0085 289.259 29.7339 288.144 25.4603 288.144C11.3355 288.144 0 299.48 0 313.604C0 327.728 11.3355 339.065 25.4603 339.065C39.5841 339.065 50.9207 327.728 50.9207 313.604C50.9207 310.445 50.3632 307.471 49.2483 304.87L186.399 185.001H187.325C191.416 187.603 196.255 189.275 201.272 189.275C202.944 189.275 204.617 189.09 206.289 188.718L239.369 337.763C229.513 345.198 223.013 357.092 223.013 370.286C223.013 392.774 241.22 410.986 263.708 410.986C286.196 410.986 304.413 392.774 304.413 370.286C304.413 362.295 302.183 354.861 298.281 348.729L348.642 256.737C352.176 258.409 356.079 259.524 360.16 259.524C368.711 259.524 376.326 255.249 380.975 248.745L461.628 311.374C461.26 313.047 461.071 314.719 461.071 316.578C461.071 330.702 472.41 342.038 486.536 342.038C500.662 342.038 512 330.702 512 316.578C512 302.454 500.851 291.117 486.725 291.117Z" />
    <style>
        path { fill: #F414A1; }
        @media (prefers-color-scheme: dark) {
            path { fill: #F414A1; }
        }
    </style>
</svg>