<svg width="144" height="86" viewBox="0 0 144 86" fill="none" xmlns="http://www.w3.org/2000/svg">
<g clip-path="url(#clip0_32_2)">
<path d="M60.4973 61.6733C60.4973 69.1119 60.4973 76.4974 60.5149 83.8829C60.5149 84.5013 60.3382 84.6957 59.7198 84.678C57.6526 84.6427 55.603 84.625 53.5358 84.678C52.67 84.7133 52.405 84.519 52.4227 83.5825C52.458 68.7232 52.4403 53.8638 52.4403 38.9867C52.4403 37.8382 52.4757 36.6898 52.4227 35.5413C52.405 34.9582 52.511 34.7286 53.1824 34.7286C55.444 34.7639 57.7233 34.7639 59.9849 34.7286C60.5326 34.7286 60.7269 34.8699 60.8506 35.4176C62.5115 42.9092 64.2077 50.383 65.9039 57.8569C65.9569 58.0866 65.9392 58.334 66.1866 58.4753C66.1866 50.8778 66.2042 43.2979 66.1689 35.718C66.1689 34.9052 66.3809 34.6932 67.176 34.7109C69.1726 34.7639 71.1868 34.7639 73.1834 34.7109C73.8195 34.6932 74.0315 34.8346 74.0315 35.5236C73.9785 38.0503 74.0138 40.5946 74.0138 43.1212C74.0138 56.6024 74.0138 70.0836 74.0315 83.5649C74.0315 84.3953 73.8548 84.678 72.9714 84.6427C70.8511 84.572 68.7309 84.5897 66.6106 84.6427C65.8862 84.6603 65.6742 84.3953 65.5328 83.7416C63.9603 76.5327 62.3701 69.3416 60.78 62.1327C60.7269 62.009 60.7269 61.8324 60.4973 61.6733Z" fill="white"/>
<path d="M0.211808 59.712V44.7819C0.211808 43.4214 0.353158 42.0786 0.688864 40.7711C1.55463 37.4141 3.65721 35.2938 7.01426 34.4457C9.68224 33.7743 12.3855 33.792 15.0535 34.4634C18.8346 35.4352 20.9195 38.0148 21.5203 41.7783C22.0327 44.9586 21.6616 48.192 21.7676 51.39C21.7853 51.8141 21.5556 51.8671 21.2199 51.8671C18.7993 51.8671 16.3963 51.8494 13.9757 51.8671C13.4457 51.8671 13.428 51.6021 13.428 51.2133C13.4457 49.0048 13.4457 46.7962 13.428 44.5876C13.4103 42.7854 12.4562 41.8843 10.7424 41.9903C9.59389 42.061 8.88715 42.6617 8.67512 43.7925C8.58678 44.2519 8.56911 44.7289 8.56911 45.206V74.165C8.56911 74.5184 8.58678 74.8717 8.62211 75.2251C8.7988 76.6916 9.59389 77.4514 10.9721 77.4691C12.3679 77.4867 13.375 76.674 13.3927 75.2075C13.4633 71.5324 13.428 67.8573 13.4457 64.1645C13.4457 63.7228 13.216 63.7228 12.8979 63.7051C11.3254 63.6345 11.3254 63.6168 11.3254 61.9913C11.3254 60.136 11.3431 58.2808 11.3078 56.4256C11.3078 55.8956 11.3961 55.6482 12.0145 55.6659C15.0535 55.7012 18.0749 55.6835 21.1139 55.6659C21.5909 55.6659 21.7853 55.7895 21.7853 56.3019C21.7676 62.8747 21.856 69.4298 21.7146 76.0025C21.5909 81.6919 18.1986 84.9959 12.3325 85.4023C10.5657 85.526 8.7988 85.4376 7.06727 84.9959C3.09181 83.9711 0.724201 81.0735 0.353158 76.7976C0.0704588 73.5113 0.264815 70.2072 0.211808 66.9208C0.176471 64.5532 0.211808 62.1326 0.211808 59.712Z" fill="white"/>
<path d="M116.667 56.0369V75.1191C116.667 76.4443 116.508 77.7518 116.137 79.0416C115.236 82.1159 113.239 84.0948 110.165 84.9429C107.479 85.685 104.741 85.7027 102.037 85.0489C98.2031 84.1125 96.1182 81.5505 95.4114 77.7518C95.2524 76.8507 95.1817 75.9496 95.1817 75.0308C95.1817 61.9383 95.1994 48.8281 95.1641 35.7356C95.1641 34.9935 95.3054 34.7284 96.1182 34.7638C98.2384 34.8345 100.359 34.8345 102.479 34.7638C103.309 34.7461 103.557 34.9051 103.539 35.7886C103.504 48.6514 103.521 61.5142 103.521 74.377C103.521 74.6774 103.504 74.9601 103.539 75.2605C103.663 76.6563 104.528 77.4691 105.907 77.4867C107.285 77.5044 108.168 76.727 108.31 75.3135C108.363 74.8188 108.38 74.324 108.38 73.8116C108.38 61.1255 108.398 48.4394 108.363 35.7532C108.363 34.9405 108.575 34.7284 109.37 34.7461C111.525 34.7991 113.663 34.7991 115.819 34.7461C116.543 34.7284 116.667 34.9758 116.667 35.6472C116.667 42.4497 116.667 49.2345 116.667 56.0369Z" fill="white"/>
<path d="M122.391 72.4512C122.391 70.8787 122.409 69.5535 122.374 68.2284C122.356 67.716 122.533 67.5746 123.028 67.5923C125.378 67.61 127.745 67.61 130.095 67.5923C130.607 67.5923 130.731 67.7513 130.731 68.246C130.713 70.49 130.696 72.7162 130.731 74.9602C130.766 76.886 132.109 77.8578 133.947 77.3631C134.883 77.1157 135.413 76.4443 135.484 75.5256C135.678 73.2109 135.696 70.8787 135.484 68.5641C135.343 66.9562 134.283 65.7901 133.24 64.6593C131.915 63.2281 130.342 62.0797 128.788 60.9135C125.802 58.7049 123.505 55.9663 122.674 52.2382C122.533 51.6021 122.427 50.966 122.409 50.3123C122.409 47.609 122.179 44.888 122.551 42.2024C123.24 37.2728 126.279 34.4458 131.261 34.0748C132.993 33.9511 134.742 33.9334 136.456 34.2868C140.802 35.1879 143.382 38.1386 143.771 42.6264C144.018 45.5064 143.859 48.3864 143.93 51.2664C143.947 51.7258 143.788 51.8671 143.329 51.8671C140.979 51.8495 138.611 51.8495 136.261 51.8671C135.714 51.8671 135.555 51.6905 135.572 51.1604C135.59 49.1815 135.59 47.2203 135.572 45.2414C135.572 44.835 135.555 44.411 135.484 44.0046C135.29 42.6618 134.512 41.9903 133.152 41.9727C131.791 41.955 130.908 42.5911 130.766 43.9339C130.59 45.8598 130.572 47.821 130.766 49.7469C130.89 51.0721 131.809 52.0968 132.692 53.0509C134.088 54.5705 135.749 55.8073 137.392 57.0264C140.06 59.0053 142.251 61.3729 143.294 64.6416C143.629 65.6841 143.841 66.7442 143.859 67.8397C143.912 71.1614 144.159 74.5008 143.612 77.7871C142.905 82.01 140.078 84.6956 135.82 85.2433C133.788 85.5084 131.774 85.5084 129.759 85.102C125.678 84.2716 123.169 81.5682 122.551 77.4514C122.321 75.7376 122.445 73.9707 122.391 72.4512Z" fill="white"/>
<path d="M27.7042 59.659C27.7042 51.655 27.7042 43.6511 27.6865 35.6295C27.6865 34.9581 27.8279 34.7461 28.5346 34.7461C34.489 34.7814 40.4257 34.7814 46.38 34.7461C47.0691 34.7461 47.2635 34.9228 47.2635 35.6119C47.2105 37.7321 47.2281 39.8524 47.2635 41.9726C47.2811 42.6087 47.0691 42.75 46.4684 42.75C43.288 42.7147 40.1076 42.75 36.9273 42.7324C36.2912 42.7324 36.0085 42.8207 36.0262 43.5804C36.0792 47.3439 36.0615 51.125 36.0262 54.8884C36.0262 55.6305 36.2735 55.7365 36.9273 55.7365C39.5776 55.7012 42.2279 55.7542 44.8782 55.7012C45.6026 55.6835 45.7616 55.9309 45.7439 56.6023C45.7086 58.6695 45.6909 60.7191 45.7439 62.7863C45.7616 63.5284 45.6203 63.7935 44.8075 63.7758C42.1219 63.7051 39.4539 63.7758 36.7682 63.7404C36.2028 63.7404 36.0262 63.8818 36.0262 64.4649C36.0615 68.299 36.0615 72.1154 36.0262 75.9495C36.0262 76.6209 36.2558 76.6916 36.8389 76.6916C40.0193 76.6739 43.1997 76.6916 46.38 76.6563C47.0691 76.6563 47.2811 76.833 47.2635 77.5397C47.2105 79.66 47.2281 81.7802 47.2635 83.9004C47.2811 84.5189 47.0868 84.6955 46.4684 84.6955C40.4963 84.6779 34.5243 84.6602 28.5346 84.6955C27.7749 84.6955 27.7042 84.4128 27.7042 83.7768C27.7219 75.7198 27.7042 67.6982 27.7042 59.659Z" fill="white"/>
<path d="M88.8562 59.6769C88.8562 67.7161 88.8562 75.7554 88.8739 83.7946C88.8739 84.4484 88.7502 84.7134 88.0258 84.6958C85.8172 84.6427 83.6086 84.6427 81.4 84.6958C80.711 84.7134 80.5166 84.5367 80.5166 83.83C80.5519 77.3456 80.5343 70.8788 80.5343 64.3944C80.5343 54.818 80.5343 45.2592 80.5166 35.6827C80.5166 34.9583 80.6756 34.7463 81.4177 34.764C83.591 34.817 85.7819 34.817 87.9551 34.764C88.6795 34.7463 88.8739 34.9053 88.8739 35.6651C88.8386 43.6513 88.8562 51.6729 88.8562 59.6769Z" fill="white"/>
<path d="M66.0459 17.6075C66.0459 21.5829 66.0282 25.4347 66.0635 29.3041C66.0635 30.0816 65.8692 30.3289 65.0918 30.2759C63.9786 30.2052 62.8478 30.2406 61.7347 30.2759C61.2223 30.2936 61.0986 30.0992 61.0986 29.6222C61.1163 20.2401 61.1163 10.8403 61.0986 1.45825C61.0986 0.99886 61.187 0.769167 61.717 0.786836C63.9786 0.822173 66.2579 0.751499 68.5195 0.87518C71.1875 1.01653 72.972 2.67739 73.3077 5.32769C73.6257 7.83665 73.5904 10.3809 73.3254 12.8899C73.1664 14.4801 72.3359 15.7169 70.8694 16.4236C70.3217 16.6887 70.3217 16.9184 70.4984 17.4308C71.8942 21.3532 73.2547 25.2933 74.6152 29.2335C74.8626 29.9284 74.6034 30.2759 73.8378 30.2759C72.6893 30.2759 71.5408 30.2406 70.3924 30.2936C69.7916 30.3113 69.5266 30.1522 69.3676 29.5338C68.4135 25.8057 67.4064 22.0953 66.4169 18.3672C66.3639 18.1198 66.3462 17.8902 66.0459 17.6075Z" fill="white"/>
<path d="M57.4056 13.3494C57.4056 17.1835 57.4409 20.9999 57.3879 24.834C57.3349 28.5975 55.1617 30.6824 51.3806 30.7001C50.8152 30.7001 50.2498 30.7177 49.702 30.6471C46.451 30.17 44.7901 28.2971 44.7018 24.8871C44.6311 22.2898 44.6841 19.7101 44.6841 17.1128C44.6841 11.9536 44.7018 6.81196 44.6665 1.6527C44.6665 0.998958 44.7901 0.716258 45.5146 0.751596C46.6277 0.82227 47.7585 0.82227 48.8716 0.751596C49.6314 0.698589 49.6314 1.0873 49.6314 1.6527C49.6137 9.07356 49.6314 16.4944 49.6314 23.9153C49.6314 24.2156 49.6137 24.516 49.6667 24.7987C49.7904 25.5761 50.2498 25.9825 51.0625 25.9825C51.8753 25.9825 52.3347 25.5585 52.4407 24.781C52.4937 24.4277 52.476 24.0743 52.476 23.7209C52.476 16.3884 52.4937 9.05589 52.4584 1.72337C52.4584 0.928283 52.688 0.716258 53.4478 0.751596C54.4726 0.82227 55.515 0.82227 56.5398 0.751596C57.3172 0.698589 57.4409 0.981289 57.4409 1.68804C57.4056 5.57515 57.4233 9.46227 57.4233 13.3494C57.4409 13.3494 57.4233 13.3494 57.4056 13.3494Z" fill="white"/>
<path d="M27.0508 13.4554V24.145C27.0508 24.7104 27.0508 25.2758 26.9624 25.8235C26.503 28.7919 24.8245 30.3997 21.8031 30.6824C20.69 30.7884 19.5592 30.7708 18.4638 30.5057C15.9195 29.905 14.4883 28.0851 14.347 25.0638C14.2586 23.3322 14.3116 21.583 14.3116 19.8515C14.3116 13.7911 14.3116 7.73075 14.2939 1.65272C14.2939 0.998975 14.4176 0.716275 15.142 0.751613C16.2198 0.822287 17.3153 0.822287 18.4108 0.751613C19.1352 0.698606 19.2589 0.981306 19.2589 1.65272C19.2412 9.02057 19.2412 16.3708 19.2412 23.7386C19.2412 24.092 19.2235 24.4454 19.2942 24.7987C19.4355 25.6292 19.9479 26.0179 20.7784 25.9825C21.5911 25.9472 21.9975 25.4701 22.0682 24.6927C22.1035 24.3747 22.0858 24.039 22.0858 23.7209C22.0858 16.4238 22.1035 9.12658 22.0682 1.81174C22.0682 0.9283 22.3155 0.698606 23.146 0.769281C24.1177 0.839956 25.0895 0.857625 26.0613 0.769281C26.9271 0.698606 27.0508 1.05198 27.0508 1.81174C27.0331 5.68118 27.0508 9.5683 27.0508 13.4554Z" fill="white"/>
<path d="M77.2296 15.505C77.2296 10.8935 77.2473 6.26426 77.2119 1.65272C77.2119 0.945974 77.4239 0.769287 78.0953 0.769287C81.4171 0.804625 84.7388 0.804625 88.0782 0.769287C88.6789 0.769287 88.9086 0.910637 88.8733 1.54671C88.8203 2.6245 88.8203 3.71996 88.8733 4.81542C88.8909 5.36315 88.7319 5.52217 88.1842 5.5045C86.4527 5.46916 84.7034 5.52217 82.9719 5.48683C82.3888 5.46916 82.1415 5.59285 82.1592 6.24659C82.1945 8.31383 82.1945 10.3634 82.1592 12.4306C82.1415 13.0314 82.3358 13.1904 82.9012 13.1727C84.3147 13.1374 85.7282 13.1904 87.1417 13.1551C87.7248 13.1374 87.9898 13.2787 87.9545 13.9325C87.9015 15.0103 87.9015 16.1057 87.9545 17.2012C87.9722 17.8019 87.7601 17.9433 87.1947 17.9433C85.7459 17.9079 84.3147 17.9433 82.8659 17.9256C82.3358 17.9079 82.1415 18.067 82.1592 18.6147C82.1945 20.6996 82.1945 22.8022 82.1592 24.8871C82.1415 25.4878 82.3535 25.6292 82.9189 25.6115C84.6504 25.5762 86.3996 25.6292 88.1312 25.5938C88.6966 25.5762 88.9086 25.7175 88.8733 26.3182C88.8203 27.4314 88.8556 28.5622 88.8733 29.6753C88.8733 30.0817 88.8379 30.329 88.3255 30.3114C84.8271 30.2937 81.3287 30.2937 77.8126 30.3114C77.1412 30.3114 77.2296 29.905 77.2296 29.4986V15.505Z" fill="white"/>
<path d="M0.176848 15.4518C0.176848 10.8403 0.194517 6.2111 0.15918 1.59956C0.15918 0.96349 0.282861 0.751465 0.971941 0.751465C4.29366 0.786802 7.61538 0.786802 10.9371 0.751465C11.5378 0.751465 11.7675 0.910483 11.7322 1.54656C11.6792 2.60668 11.6792 3.6668 11.7322 4.72693C11.7675 5.38067 11.5025 5.50435 10.9194 5.48668C9.2409 5.45134 7.52703 5.50435 5.83084 5.45134C5.24777 5.43367 5.08875 5.61036 5.08875 6.19343C5.12409 8.26067 5.12409 10.3102 5.08875 12.3775C5.07108 13.0312 5.30077 13.1549 5.90151 13.1549C7.31501 13.1196 8.72851 13.1726 10.142 13.1372C10.6897 13.1196 10.8488 13.2963 10.8311 13.844C10.7957 14.9571 10.7781 16.0879 10.8311 17.201C10.8664 17.8194 10.6191 17.9255 10.0713 17.9255C8.65783 17.8901 7.24433 17.9431 5.83084 17.9078C5.24777 17.8901 5.08875 18.0845 5.08875 18.6675C5.10642 22.219 5.07108 25.788 5.12409 29.3394C5.14176 30.1345 4.89439 30.3466 4.13464 30.3112C3.10985 30.2405 2.0674 30.2582 1.04262 30.3112C0.353536 30.3466 0.15918 30.1522 0.15918 29.4455C0.194517 24.7456 0.176848 20.0987 0.176848 15.4518Z" fill="white"/>
<path d="M33.3941 17.8194C33.3941 13.9677 33.3764 10.0982 33.4118 6.24643C33.4118 5.6457 33.2704 5.416 32.6343 5.45134C31.8216 5.50435 30.9911 5.43367 30.1607 5.46901C29.6837 5.48668 29.4716 5.38067 29.4893 4.85061C29.5246 3.6668 29.507 2.50067 29.4893 1.31686C29.4893 0.892815 29.613 0.751465 30.037 0.751465C33.9241 0.769134 37.8113 0.769134 41.6984 0.751465C42.1224 0.751465 42.2638 0.910483 42.2461 1.31686C42.2284 2.51834 42.2284 3.73748 42.2461 4.93895C42.2638 5.39834 42.0518 5.46901 41.663 5.46901C40.8326 5.45134 40.0199 5.50435 39.1894 5.45134C38.5003 5.39834 38.306 5.59269 38.306 6.31711C38.3413 12.6778 38.3237 19.0386 38.3237 25.3993C38.3237 26.7598 38.2883 28.1026 38.3413 29.4631C38.3767 30.1522 38.1293 30.2936 37.4932 30.2759C36.3801 30.2229 35.2493 30.2229 34.1362 30.2759C33.5001 30.3112 33.3587 30.0815 33.3587 29.4808C33.3941 25.5937 33.3941 21.7066 33.3941 17.8194Z" fill="white"/>
<path d="M115.147 9.16183C115.094 9.23251 115.041 9.30318 114.988 9.37386C114.528 8.87913 113.874 9.1795 113.327 8.96748C112.832 8.79079 112.514 8.54343 112.32 8.08404C112.249 7.92502 112.072 7.766 112.072 7.62465C112.125 6.31717 111.136 6.15815 110.199 5.87545C108.238 5.25705 106.277 4.63864 104.333 3.96723C103.874 3.80821 103.627 3.82588 103.362 4.30294C102.725 5.4514 101.489 5.84011 100.34 5.36306C99.2977 4.93901 98.697 3.73754 98.9267 2.60674C99.174 1.49361 100.216 0.698518 101.383 0.751525C102.584 0.804531 103.538 1.6703 103.644 2.92478C103.68 3.43717 103.909 3.54318 104.316 3.63152C106.825 4.14392 109.316 4.65631 111.825 5.18637C112.108 5.23938 112.302 5.22171 112.549 5.04502C113.927 4.00257 115.394 4.16159 116.26 5.34539C116.949 6.2995 116.843 8.17238 115.341 8.8968C115.27 8.94981 115.217 9.07349 115.147 9.16183Z" fill="#00DAB9"/>
<path d="M111.278 10.01C107.709 13.0667 104.14 16.141 100.535 19.18C100.005 19.6218 99.6695 19.9928 99.8816 20.7879C100.129 21.7243 99.4222 22.8021 98.4857 23.2085C97.5139 23.6325 96.3478 23.3675 95.6764 22.5901C95.005 21.795 94.9166 20.5935 95.482 19.7101C96.0828 18.7913 97.2312 18.2966 98.2384 18.756C98.9274 19.074 99.2985 18.8443 99.7755 18.4733C103.539 15.5933 107.302 12.731 111.066 9.86862C111.278 9.78028 111.296 9.86862 111.278 10.01Z" fill="#01DAB9"/>
<path d="M111.277 10.01C111.207 9.95695 111.154 9.90394 111.083 9.83327C111.401 9.46223 111.79 9.21486 112.231 9.02051C112.055 9.49756 111.684 9.76259 111.277 10.01Z" fill="#27E0C4"/>
<path d="M66.0455 9.33853C66.0455 8.31374 66.0808 7.28896 66.0278 6.26417C66.0101 5.66343 66.1515 5.43374 66.7875 5.46908C68.0067 5.53975 68.4837 5.9638 68.5014 7.20061C68.5191 8.61411 68.5191 10.0099 68.5014 11.4234C68.5014 12.1655 68.307 12.8369 67.4766 13.0666C66.2928 13.3847 66.0278 13.1903 66.0278 11.9888C66.0455 11.0877 66.0455 10.222 66.0455 9.33853Z" fill="white"/>
<path d="M141.385 18.8444C140.819 18.8444 140.307 19.0387 139.901 19.3568L131.508 14.5862C131.685 14.2505 131.791 13.8618 131.791 13.4378C131.791 12.0949 130.713 11.0171 129.37 11.0171C128.027 11.0171 126.949 12.0949 126.949 13.4378C126.949 14.1975 127.303 14.8866 127.85 15.3283L122.338 23.1732C121.719 22.7668 120.995 22.5371 120.2 22.5371H120.059L115.058 9.03824C115.995 8.70254 116.684 7.8191 116.684 6.75898C116.684 5.41616 115.606 4.33837 114.263 4.33837C113.521 4.33837 112.85 4.67407 112.408 5.20413L103.697 3.29591V3.1899C103.697 1.84708 102.62 0.769287 101.277 0.769287C99.9339 0.769287 98.8561 1.84708 98.8561 3.1899C98.8561 4.53272 99.9339 5.61051 101.277 5.61051C102.408 5.61051 103.362 4.81542 103.627 3.7553L111.843 6.67064V6.74131C111.843 7.46573 112.161 8.11947 112.655 8.56119L98.6794 18.862C98.3437 18.6677 97.9373 18.5617 97.531 18.5617C96.1881 18.5617 95.1104 19.6395 95.1104 20.9823C95.1104 22.3251 96.1881 23.4029 97.531 23.4029C98.8738 23.4029 99.9516 22.3251 99.9516 20.9823C99.9516 20.6819 99.8986 20.3992 99.7926 20.1519L112.832 8.75554H112.92C113.309 9.00291 113.769 9.16192 114.246 9.16192C114.405 9.16192 114.564 9.14426 114.723 9.10892L117.868 23.2792C116.931 23.986 116.313 25.1168 116.313 26.3712C116.313 28.5092 118.044 30.2407 120.182 30.2407C122.32 30.2407 124.052 28.5092 124.052 26.3712C124.052 25.6115 123.84 24.9047 123.469 24.3217L128.257 15.5757C128.593 15.7347 128.964 15.8407 129.352 15.8407C130.165 15.8407 130.889 15.4343 131.331 14.8159L138.999 20.7703C138.964 20.9293 138.946 21.0883 138.946 21.265C138.946 22.6078 140.024 23.6856 141.367 23.6856C142.71 23.6856 143.788 22.6078 143.788 21.265C143.788 19.9222 142.728 18.8444 141.385 18.8444Z" fill="#F414A1"/>
</g>
<defs>
<clipPath id="clip0_32_2">
<rect width="144" height="84.9865" fill="white" transform="translate(0 0.680908)"/>
</clipPath>
</defs>
</svg>
